<?xml version="1.0" encoding="UTF-8" standalone="no"?>
<!-- Created with Inkscape (http://www.inkscape.org/) -->

<svg
   width="135.46666mm"
   height="135.46666mm"
   viewBox="0 0 135.46666 135.46666"
   version="1.1"
   id="svg1"
   xml:space="preserve"
   sodipodi:docname="boletos.svg"
   inkscape:version="1.4.2 (f4327f4, 2025-05-13)"
   xmlns:inkscape="http://www.inkscape.org/namespaces/inkscape"
   xmlns:sodipodi="http://sodipodi.sourceforge.net/DTD/sodipodi-0.dtd"
   xmlns:xlink="http://www.w3.org/1999/xlink"
   xmlns="http://www.w3.org/2000/svg"
   xmlns:svg="http://www.w3.org/2000/svg"><sodipodi:namedview
     id="namedview1"
     pagecolor="#505050"
     bordercolor="#ffffff"
     borderopacity="1"
     inkscape:showpageshadow="0"
     inkscape:pageopacity="0"
     inkscape:pagecheckerboard="1"
     inkscape:deskcolor="#505050"
     inkscape:document-units="mm"
     inkscape:zoom="0.35355339"
     inkscape:cx="-296.98485"
     inkscape:cy="38.183766"
     inkscape:window-width="1920"
     inkscape:window-height="1009"
     inkscape:window-x="-8"
     inkscape:window-y="-8"
     inkscape:window-maximized="1"
     inkscape:current-layer="layer1" /><defs
     id="defs1"><linearGradient
       inkscape:collect="always"
       xlink:href="#linearGradient12"
       id="linearGradient13"
       x1="508.81558"
       y1="535.67749"
       x2="635.72998"
       y2="535.67749"
       gradientUnits="userSpaceOnUse"
       gradientTransform="translate(-477.0656,-373.50764)" /><linearGradient
       id="linearGradient12"
       inkscape:collect="always"><stop
         style="stop-color:#343d9b;stop-opacity:1;"
         offset="0"
         id="stop12" /><stop
         style="stop-color:#9d6ce3;stop-opacity:1;"
         offset="1"
         id="stop13" /></linearGradient><linearGradient
       inkscape:collect="always"
       xlink:href="#linearGradient10"
       id="linearGradient11"
       x1="521.22772"
       y1="535.64423"
       x2="551.83826"
       y2="535.64423"
       gradientUnits="userSpaceOnUse"
       gradientTransform="translate(-477.0656,-373.50764)" /><linearGradient
       id="linearGradient10"
       inkscape:collect="always"><stop
         style="stop-color:#343d9b;stop-opacity:1;"
         offset="0"
         id="stop10" /><stop
         style="stop-color:#2d3076;stop-opacity:1;"
         offset="1"
         id="stop11" /></linearGradient></defs><g
     inkscape:label="Capa 1"
     inkscape:groupmode="layer"
     id="layer1"><rect
       style="fill:#ffffff;fill-opacity:1;stroke-width:0.292384"
       id="rect10"
       width="135.46666"
       height="135.46666"
       x="8.0078121e-07"
       y="3.0310059e-07"
       ry="10"
       inkscape:export-filename="rect8.svg"
       inkscape:export-xdpi="96"
       inkscape:export-ydpi="96" /><rect
       style="display:none;opacity:0.31;fill:#dbae05;stroke-width:0.239937"
       id="rect2"
       width="110.33186"
       height="110.33186"
       x="12.567385"
       y="12.567393"
       sodipodi:insensitive="true" /><g
       id="g13"
       transform="matrix(0.81073827,0,0,0.81073827,-9.45478,-63.743994)"><path
         id="path9"
         style="fill:url(#linearGradient11);fill-opacity:1"
         d="m 44.44999,139.6452 v 1.55546 1.55494 l 1.47588,1.13895 c 4.49545,3.46822 7.69438,8.97373 8.59947,14.80065 0.37905,2.44029 0.168,7.21701 -0.41496,9.39271 -0.6676,2.49163 -2.8777,6.67981 -4.64829,8.80928 -0.88269,1.06161 -2.43586,2.60945 -3.45199,3.43958 l -1.84795,1.50947 0.078,1.32292 0.0775,1.32291 15.27969,0.0682 15.1753,0.0677 V 139.64519 H 72.99238 59.61129 Z m 14.2875,5.82083 h 2.05052 2.05052 l -0.0589,15.1474 c -0.0323,8.33104 -0.0621,15.832 -0.0661,16.66875 l -0.007,1.52135 h -1.98438 -1.98437 v -16.66875 z"
         sodipodi:nodetypes="ccccssssccccccccccccscccccc" /><path
         id="path8"
         style="fill:url(#linearGradient13)"
         d="m 31.74999,127.26456 v 12.10934 12.10882 l 1.53582,0.17415 c 3.31184,0.37469 6.5741,2.66867 8.04551,5.65753 0.83052,1.68712 0.86971,1.90332 0.86971,4.8147 0,2.78062 -0.0628,3.17657 -0.7183,4.51135 -1.75036,3.56399 -5.34882,6.06457 -8.74055,6.07457 l -0.99219,0.003 v 12.17858 12.17859 l 54.7026,-0.0682 c 30.08643,-0.0375 56.5026,-0.10636 58.70236,-0.15296 l 3.99976,-0.0847 0.15245,-1.28933 c 0.44801,-3.78274 3.98259,-7.31581 7.88375,-7.88065 l 1.35961,-0.19689 0.0625,-1.80661 c 0.0598,-1.72844 0.0327,-1.81815 -0.62735,-2.06912 -1.12681,-0.42841 -1.61696,-1.03418 -1.61696,-1.99833 0,-0.96188 0.95986,-2.19573 1.70791,-2.19573 0.32898,0 0.40807,-0.34901 0.40307,-1.78594 -0.006,-1.75169 -0.0221,-1.79355 -0.85938,-2.18281 -1.69822,-0.78956 -1.63648,-2.92334 0.10904,-3.77806 0.95817,-0.46918 0.96039,-0.47453 0.92449,-2.11305 -0.0311,-1.41933 -0.10816,-1.65592 -0.56534,-1.73892 -0.87066,-0.15801 -1.71979,-1.12487 -1.71979,-1.95853 0,-1.07122 0.37879,-1.66197 1.3131,-2.04897 0.77666,-0.32168 0.80357,-0.39007 0.80357,-2.02055 0,-1.24969 -0.0938,-1.68775 -0.36122,-1.68775 -0.19866,0 -0.67491,-0.24669 -1.05833,-0.54829 -0.52331,-0.41164 -0.69712,-0.78673 -0.69712,-1.5043 0,-1.06526 0.83546,-2.18075 1.63349,-2.18075 0.41854,0 0.48318,-0.23175 0.48318,-1.73374 0,-1.69099 -0.0197,-1.74047 -0.79944,-2.01228 -0.93501,-0.32594 -1.31723,-0.92657 -1.31723,-2.06964 0,-0.88824 0.99308,-2.12184 1.70791,-2.12184 0.3268,0 0.40876,-0.34489 0.40876,-1.71514 0,-1.59454 -0.0448,-1.72601 -0.64182,-1.87585 -2.0322,-0.51003 -2.07871,-3.37347 -0.0667,-4.10104 0.87584,-0.3167 0.87808,-0.32217 0.7581,-1.803 -0.12661,-1.56258 -0.34007,-1.87092 -1.29656,-1.87792 -1.24939,-0.009 -3.54649,-1.1301 -4.95784,-2.42 -1.58546,-1.44902 -2.72356,-3.46558 -3.00757,-5.32939 l -0.18035,-1.18288 -58.67136,-0.13849 z m 105.30417,9.46764 v 25.40155 25.40103 H 107.82958 78.60501 l 0.0543,-25.33385 0.0543,-25.33386 29.17031,-0.0672 z m -95.77917,0.003 h 16.7349 l 16.73489,5.2e-4 0.014,1.45469 0.0139,1.45521 v 44.98278 l 0.10438,5.2e-4 v 1.45314 1.45314 H 58.07603 41.27499 v -3.90312 -3.90312 l 1.24695,-0.66094 c 1.7125,-0.90799 4.13358,-3.20902 5.65134,-5.37022 5.75934,-8.20101 4.55822,-19.58126 -2.77658,-26.30227 -0.95228,-0.87259 -2.26915,-1.87134 -2.92643,-2.22002 l -1.19528,-0.63407 v -3.90312 z m 54.51089,7.40782 c -2.61084,0 -2.64309,0.008 -3.01739,0.7276 -0.605,1.16351 -2.24595,2.64548 -3.50108,3.16157 l -1.1591,0.47645 -0.001,2.33785 -0.001,2.33784 1.98438,-0.18604 1.98437,-0.18603 v 10.71821 10.71769 l -0.68936,0.17311 c -0.37913,0.0955 -1.21257,0.0949 -1.85209,-0.001 l -1.16272,-0.17415 v 3.07268 3.07217 h 7.01146 7.01146 v -2.91042 -2.91042 h -1.98437 -1.98438 v -15.21354 -15.21354 z m 14.24822,5.2e-4 -2.497,2.4691 -2.49753,2.46858 v 13.10514 13.10515 l 0.79582,1.02887 c 0.43751,0.56572 1.53885,1.71122 2.4474,2.54558 l 1.65158,1.51722 6.55257,0.004 6.55257,0.004 2.34766,-2.3151 2.34766,-2.31511 0.16175,-5.26789 c 0.089,-2.89744 0.16174,-8.87603 0.16174,-13.2855 v -8.01708 l -2.41225,-2.52387 -2.41277,-2.52336 h -6.5996 z m 3.22616,6.08541 h 3.29386 c 3.26524,0 3.30133,0.007 4.15788,0.77205 l 0.86403,0.77153 0.0749,10.36267 0.0755,10.36319 -1.03611,1.03612 -1.03611,1.03611 -3.00809,-0.001 c -3.20638,-10e-4 -4.33151,-0.35279 -4.97489,-1.55495 -0.18507,-0.34584 -0.28164,-4.05567 -0.28164,-10.83448 v -10.30893 l 0.93535,-0.82114 z"
         sodipodi:nodetypes="ccccsssscccssccscsssscssssssssssssssssssscssccccccccccccccccccccccccccsssccccsccccccccccccccccccccscccccsccccccssccccccsscccccssscccs" /></g></g></svg>
